<svg xmlns="http://www.w3.org/2000/svg" viewBox="0 0 24 24" aria-hidden="true">
  <path fill="currentColor" d="M12 .5C5.73.5.75 5.7.75 12.2c0 5.19 3.44 9.6 8.2 11.15.6.12.82-.27.82-.6 0-.3-.01-1.1-.02-2.16-3.34.75-4.04-1.67-4.04-1.67-.55-1.43-1.34-1.81-1.34-1.81-1.1-.78.08-.76.08-.76 1.22.09 1.86 1.3 1.86 1.3 1.08 1.92 2.84 1.36 3.53 1.04.11-.81.42-1.36.76-1.67-2.66-.31-5.46-1.38-5.46-6.15 0-1.36.46-2.47 1.23-3.34-.12-.31-.53-1.57.12-3.27 0 0 1.01-.33 3.3 1.28a11.1 11.1 0 0 1 3-.42c1.02 0 2.05.14 3 .42 2.28-1.61 3.29-1.28 3.29-1.28.65 1.7.24 2.96.12 3.27.77.87 1.23 1.98 1.23 3.34 0 4.78-2.8 5.83-5.47 6.14.43.39.81 1.16.81 2.34 0 1.69-.02 3.05-.02 3.46 0 .33.22.73.83.6 4.75-1.55 8.18-5.96 8.18-11.15C23.25 5.7 18.27.5 12 .5z"/>
</svg>
